# xmcd
#
# Track frame offsets:
#	150
#	22988
#	48175
#	69195
#	86896
#	104122
#	122023
#	142984
#	162116
#	184071
#
# Disc length: 2683 seconds
#
# Revision: 1
# Processed by: cddbd v1.5.1PL2 Copyright (c) Steve Scherf et al.
# Submitted via: audiograbber 1.83.01
#
DISCID=7f0a790a
DTITLE=Various Artist - The Best of 90s R&B disc1
DYEAR=2004
DGENRE=R&B
TTITLE0=Run-DMC-Down with the King
TTITLE1=Damian Dane-Exclusivity
TTITLE2=Tyler Collins-Girls Nite Out
TTITLE3=IHi-Five-I Like the Way (The Kissing Game)
TTITLE4=Aaliyah-Back and Forth
TTITLE5=PM Dawn-Set Adrift on Memory Bliss
TTITLE6=SWV-I'm so into you
TTITLE7=Chantay Savage-I will Survive
TTITLE8=Jeffrey Osborne-Only Human
TTITLE9=Aretha Franklin-Everyday People
EXTD=
EXTT0=
EXTT1=
EXTT2=
EXTT3=
EXTT4=
EXTT5=
EXTT6=
EXTT7=
EXTT8=
EXTT9=
PLAYORDER=
